HIERARCHY
ROOT Hips
{
	OFFSET -3.958830 18.904000 13.208200
	CHANNELS 6 Xposition Yposition Zposition Zrotation Yrotation Xrotation 
	JOINT LHipJoint
	{
		OFFSET 0.000000 0.000000 0.000000
		CHANNELS 3 Zrotation Yrotation Xrotation
		JOINT LeftUpLeg
		{
			OFFSET 1.800000 -1.400000 0.085000
			CHANNELS 3 Zrotation Yrotation Xrotation
			JOINT LeftLeg
			{
				OFFSET 2.215000 -6.000000 0.000000
				CHANNELS 3 Zrotation Yrotation Xrotation
				JOINT LeftFoot
				{
					OFFSET 2.500000 -6.900000 0.000000
					CHANNELS 3 Zrotation Yrotation Xrotation
					JOINT LeftToeBase
					{
						OFFSET 0.200000 -0.500000 1.950000
						CHANNELS 3 Zrotation Yrotation Xrotation
						End Site
						{
							OFFSET 0.000000 0.000000 0.000000
						}
					}
				}
			}
		}
	}
	JOINT RHipJoint
	{
		OFFSET 0.000000 0.000000 0.000000
		CHANNELS 3 Zrotation Yrotation Xrotation
		JOINT RightUpLeg
		{
			OFFSET -1.800000 -1.400000 0.085000
			CHANNELS 3 Zrotation Yrotation Xrotation
			JOINT RightLeg
			{
				OFFSET -2.215000 -6.000000 0.000000
				CHANNELS 3 Zrotation Yrotation Xrotation
				JOINT RightFoot
				{
					OFFSET -2.500000 -6.900000 0.000000
					CHANNELS 3 Zrotation Yrotation Xrotation
					JOINT RightToeBase
					{
						OFFSET -0.200000 -0.500000 1.950000
						CHANNELS 3 Zrotation Yrotation Xrotation
						End Site
						{
							OFFSET 0.000000 0.000000 0.000000
						}
					}
				}
			}
		}
	}
	JOINT LowerBack
	{
		OFFSET 0.000000 0.000000 0.000000
		CHANNELS 3 Zrotation Yrotation Xrotation
		JOINT Spine
		{
			OFFSET -0.087000 1.940000 -0.288900
			CHANNELS 3 Zrotation Yrotation Xrotation
			JOINT Spine1
			{
				OFFSET 0.000000 1.950000 0.060000
				CHANNELS 3 Zrotation Yrotation Xrotation
				JOINT Neck
				{
					OFFSET 0.000000 0.000000 0.000000
					CHANNELS 3 Zrotation Yrotation Xrotation
					JOINT Neck1
					{
						OFFSET 0.000000 1.600000 0.340000
						CHANNELS 3 Zrotation Yrotation Xrotation
						JOINT Head
						{
							OFFSET 0.000000 1.667000 -0.240000
							CHANNELS 3 Zrotation Yrotation Xrotation
							End Site
							{
								OFFSET 0.000000 0.000000 0.000000
							}
						}
					}
				}
				JOINT LeftShoulder
				{
					OFFSET 0.000000 0.000000 0.000000
					CHANNELS 3 Zrotation Yrotation Xrotation
					JOINT LeftArm
					{
						OFFSET 2.700000 1.550000 -0.730000
						CHANNELS 3 Zrotation Yrotation Xrotation
						JOINT LeftForeArm
						{
							OFFSET 5.450000 0.000000 0.000000
							CHANNELS 3 Zrotation Yrotation Xrotation
							JOINT LeftHand
							{
								OFFSET 3.450000 0.000000 0.000000
								CHANNELS 3 Zrotation Yrotation Xrotation
								JOINT LeftHandIndex1
								{
									OFFSET 0.750000 0.000000 0.000000
									CHANNELS 3 Zrotation Yrotation Xrotation
									End Site
									{
										OFFSET 0.000000 0.000000 0.000000
									}
								}
							}
						}
					}
				}
				JOINT RightShoulder
				{
					OFFSET 0.000000 0.000000 0.000000
					CHANNELS 3 Zrotation Yrotation Xrotation
					JOINT RightArm
					{
						OFFSET -2.700000 1.550000 -0.730000
						CHANNELS 3 Zrotation Yrotation Xrotation
						JOINT RightForeArm
						{
							OFFSET -5.450000 0.000000 0.000000
							CHANNELS 3 Zrotation Yrotation Xrotation
							JOINT RightHand
							{
								OFFSET -3.450000 0.000000 0.000000
								CHANNELS 3 Zrotation Yrotation Xrotation
								JOINT RightHandIndex1
								{
									OFFSET -0.750000 0.000000 0.000000
									CHANNELS 3 Zrotation Yrotation Xrotation
									End Site
									{
										OFFSET 0.000000 0.000000 0.000000
									}
								}
							}
						}
					}
				}
			}
		}
	}
}
MOTION
Frames: 7
Frame Time: 0.016667
1.116730 17.036890 -3.604350 -1.160076 -72.294275 9.414721 -15.247509 10.702255 4.729986 -4.056780 -6.101843 -47.728641 -3.189299 3.331454 9.677156 -0.772980 2.242763 4.036744 0.515510 0.181380 0.208580 18.420778 -11.505172 2.369598 -2.660713 -0.084932 -4.446178 4.018539 -5.540455 15.014709 -0.305390 -4.682254 3.038016 0.209780 0.657000 0.444660 -5.389752 2.027818 -7.243398 14.375704 11.823383 4.957387 5.670773 9.988165 14.253230 -0.754115 -4.215689 -9.278393 -8.023323 4.135371 34.550560 -3.669410 2.769840 3.641660 -6.201733 -4.117633 7.122288 -35.627351 4.330063 -7.460617 -3.708968 -58.983183 -0.635360 -3.626074 3.629130 0.260970 0.522920 -0.209900 0.513470 8.310404 11.081406 3.092891 40.025723 25.457286 -0.814245 -6.497808 54.922557 -4.025894 1.699276 -1.855394 -0.201940 0.095200 -0.256530 0.008340 
1.151810 16.982100 -3.605760 -1.377972 -71.724918 9.406981 -15.252001 10.594960 4.823401 -4.548164 -6.402441 -49.222707 -2.048316 3.318833 11.044898 -0.727737 2.224083 4.023706 0.561960 0.248640 0.229950 18.431150 -11.466060 2.409276 -2.946477 -0.199794 -3.691123 4.875303 -5.643470 13.735895 -0.357793 -4.719790 3.013424 0.225270 0.631680 0.478280 -5.435862 2.106326 -7.334900 14.893472 11.779127 5.893431 5.182343 10.336928 13.515726 -0.699181 -3.929866 -8.855368 -7.349614 3.891677 33.986094 -3.357430 2.679140 2.497900 -8.093867 -4.399100 6.768963 -37.122392 2.841329 -8.053420 5.472065 -59.877998 -5.516322 -3.609801 3.558988 0.251460 0.505950 -0.164880 0.535680 9.903331 11.291378 2.783593 39.788021 25.555427 0.061641 -6.214475 44.943990 -3.236957 1.824057 -1.840419 -0.151350 0.072540 -0.289240 0.031840 
1.178450 16.915770 -3.608230 -1.314170 -71.013695 9.154808 -15.260443 10.443027 4.978608 -4.300062 -6.814978 -51.142665 -1.295587 3.755187 15.293901 -0.654710 2.596726 3.874796 0.540940 0.208290 0.235510 18.432454 -11.425241 2.480712 -3.565335 -0.175960 -2.665038 6.577261 -5.945958 12.464770 -0.368652 -4.891540 2.965189 0.198680 0.622570 0.500460 -5.426555 2.285470 -7.500478 15.093843 11.887175 7.151768 4.254295 11.131066 11.768251 -0.252168 -3.047711 -8.670351 -5.433521 2.644018 32.757431 -5.154870 2.991550 3.882410 -11.352464 -5.437264 6.205291 -38.947397 0.757374 -8.704528 19.905068 -59.137214 -12.700560 -3.632058 3.376103 0.220180 0.535080 -0.184120 0.527830 12.089135 12.098663 3.067307 39.522904 24.706301 1.390008 -6.468452 31.858251 -2.880177 1.994271 -1.856038 -0.141620 0.015970 -0.295140 0.021750 
1.191250 16.866590 -3.605080 -0.802816 -70.102161 8.130766 -15.340687 10.266062 5.234584 -3.834977 -7.733350 -53.445544 0.147075 4.469733 23.358944 -0.519062 3.549030 3.486841 0.568390 0.245820 0.285570 18.386269 -11.266339 2.517462 -4.371889 -0.214934 -1.140270 8.436986 -6.261544 11.050549 -0.434028 -5.085231 2.897900 0.208460 0.580700 0.534680 -5.284805 2.277329 -7.690160 14.472289 11.872027 8.806136 3.642104 11.762001 10.030509 0.365405 -1.639433 -8.091471 -2.629062 2.305605 31.442683 -6.803330 4.592040 2.786680 -16.015907 -6.231843 5.291993 -39.461265 -1.117059 -8.999348 31.426903 -58.558175 -18.342712 -3.647801 3.186077 0.213350 0.548050 -0.151620 0.518120 15.267362 12.299113 3.057088 39.810037 23.437545 2.615951 -6.032425 19.623076 -2.396370 2.166416 -1.860251 -0.112770 -0.024280 -0.316990 0.002680 
1.206120 16.859080 -3.572300 -2.025035 -68.526371 8.352094 -15.381759 10.079869 5.644543 -2.387257 -9.118966 -55.596189 2.129468 5.168026 33.999812 -0.269547 5.268517 2.879059 0.499080 0.172060 0.261130 18.376856 -11.091674 2.514484 -4.663593 -0.304074 -0.062710 9.918801 -6.688706 11.015757 -0.484648 -5.211157 2.882757 0.152990 0.603130 0.521430 -5.274648 2.149659 -8.017539 15.968493 10.737478 10.899383 2.125257 11.527497 8.235172 1.002205 -1.124338 -8.241093 -1.732526 2.400523 32.244826 -7.439870 5.367780 2.616100 -20.067366 -7.280044 4.842130 -41.721274 -2.316493 -9.564813 39.225064 -55.976733 -21.586795 -3.669323 2.927314 0.260390 0.547780 -0.130530 0.508990 17.694315 13.095501 3.717519 40.689362 20.900377 2.529623 -5.658314 11.718862 -1.836135 2.278211 -1.773461 -0.148620 0.025110 -0.285890 -0.005670 
1.181840 16.867170 -3.536990 -2.372204 -67.915266 8.391690 -15.453728 9.934294 5.872027 -0.411212 -10.133040 -56.226957 3.288877 5.956221 43.246881 0.102854 6.981303 2.276153 0.474600 0.154390 0.240710 18.350632 -10.952713 2.426812 -5.093207 -0.389481 0.227364 10.803787 -7.034140 11.446001 -0.499903 -5.335864 2.860877 0.104150 0.588460 0.563970 -5.126880 2.090783 -8.167000 15.356390 10.587929 11.039545 2.343093 11.515177 7.099655 1.505506 -0.016078 -8.162484 0.145039 1.250873 32.668649 -8.746200 5.512090 4.353030 -23.195585 -7.588683 4.491275 -45.699789 -4.129447 -9.825824 43.901355 -55.103288 -23.959288 -3.689063 2.879903 0.203750 0.573270 -0.120250 0.514600 19.777533 12.822531 4.075354 41.909904 17.626157 2.223216 -4.942089 6.256353 -1.332520 2.377954 -1.804565 -0.086690 -0.043470 -0.295010 0.018120 
1.162800 16.925090 -3.528150 -1.499096 -67.343701 6.517871 -15.555853 10.189102 6.048403 1.573016 -11.036871 -55.031465 3.548024 6.883110 50.935624 0.394183 8.430141 1.747160 0.519140 0.170060 0.325690 18.235746 -10.806009 2.292658 -5.112482 -0.662793 0.083215 9.706458 -7.183266 13.346293 -0.539710 -5.204469 2.859137 0.073230 0.453740 0.566200 -4.637334 1.408160 -8.348654 13.252135 9.210796 12.894804 2.564672 10.549591 5.930800 1.889344 0.388215 -8.256864 0.532732 1.431992 35.501066 -8.660940 6.122730 2.864760 -24.556568 -7.269438 4.394348 -50.940075 -4.793416 -10.990938 49.533959 -54.935212 -27.643191 -3.565569 2.763316 0.313790 0.464050 -0.022670 0.480880 20.459018 12.372109 3.961002 45.207522 15.718542 1.047485 -5.743350 5.104030 -1.196214 2.431485 -1.772628 -0.057510 -0.097740 -0.327200 -0.026030 
